<svg width="17" height="18" viewBox="0 0 17 18" fill="none" xmlns="http://www.w3.org/2000/svg">
<path d="M4 6.58984H2.875C2.37772 6.58984 1.90081 6.3923 1.54917 6.04067C1.19754 5.68904 1 5.21212 1 4.71484C1 4.21756 1.19754 3.74065 1.54917 3.38902C1.90081 3.03739 2.37772 2.83984 2.875 2.83984H4" stroke="white" stroke-width="1.5" stroke-linecap="round" stroke-linejoin="round"/>
<path d="M13 6.58984H14.125C14.6223 6.58984 15.0992 6.3923 15.4508 6.04067C15.8025 5.68904 16 5.21212 16 4.71484C16 4.21756 15.8025 3.74065 15.4508 3.38902C15.0992 3.03739 14.6223 2.83984 14.125 2.83984H13" stroke="white" stroke-width="1.5" stroke-linecap="round" stroke-linejoin="round"/>
<path d="M2.5 16.3398H14.5" stroke="white" stroke-width="1.5" stroke-linecap="round" stroke-linejoin="round"/>
<path d="M7 10.835V12.59C7 13.0025 6.6475 13.325 6.2725 13.4975C5.3875 13.9025 4.75 15.02 4.75 16.34" stroke="white" stroke-width="1.5" stroke-linecap="round" stroke-linejoin="round"/>
<path d="M10 10.835V12.59C10 13.0025 10.3525 13.325 10.7275 13.4975C11.6125 13.9025 12.25 15.02 12.25 16.34" stroke="white" stroke-width="1.5" stroke-linecap="round" stroke-linejoin="round"/>
<path d="M13 1.33984H4V6.58984C4 7.78332 4.47411 8.92791 5.31802 9.77182C6.16193 10.6157 7.30653 11.0898 8.5 11.0898C9.69347 11.0898 10.8381 10.6157 11.682 9.77182C12.5259 8.92791 13 7.78332 13 6.58984V1.33984Z" stroke="white" stroke-width="1.5" stroke-linecap="round" stroke-linejoin="round"/>
</svg>
