<svg width="26" height="8" viewBox="0 0 26 8" fill="none" xmlns="http://www.w3.org/2000/svg">
<mask id="path-1-outside-1_194_250076" maskUnits="userSpaceOnUse" x="0.0561523" y="-0.195312" width="26" height="9" fill="black">
<rect fill="white" x="0.0561523" y="-0.195312" width="26" height="9"/>
<path d="M3.65246 7.80469H0.762563V0.378071H3.4081C4.07391 0.378071 4.61222 0.548065 5.02304 0.888054C5.44094 1.22096 5.64989 1.68136 5.64989 2.26926C5.64989 2.62341 5.5649 2.95986 5.3949 3.2786C5.23199 3.59733 4.98762 3.81337 4.6618 3.9267C5.04429 4.05419 5.34532 4.27023 5.5649 4.5748C5.78447 4.87229 5.89426 5.24415 5.89426 5.69039C5.89426 6.05871 5.80926 6.40578 5.63927 6.7316C5.46927 7.05034 5.21782 7.30887 4.88492 7.5072C4.55201 7.70552 4.1412 7.80469 3.65246 7.80469ZM1.7294 1.21742V3.56546H3.25935C3.656 3.56546 3.98537 3.48755 4.24744 3.33172C4.50952 3.16881 4.64055 2.86069 4.64055 2.40738C4.64055 1.94698 4.50952 1.63532 4.24744 1.47241C3.98537 1.30241 3.656 1.21742 3.25935 1.21742H1.7294ZM1.7294 4.40481V6.96534H3.53559C4.00308 6.96534 4.34306 6.84493 4.55556 6.6041C4.77513 6.36328 4.88492 6.05517 4.88492 5.67976C4.88492 5.30436 4.77513 4.99979 4.55556 4.76604C4.34306 4.52522 4.00308 4.40481 3.53559 4.40481H1.7294ZM11.2296 5.47789V0.378071H12.2177V5.61601C12.2177 6.18974 12.0972 6.65014 11.8564 6.99722C11.6227 7.34429 11.3075 7.59928 10.9108 7.76219C10.5213 7.91802 10.0927 7.99593 9.62525 7.99593C9.1436 7.99593 8.70799 7.91448 8.31842 7.75156C7.92885 7.58865 7.62073 7.33366 7.39407 6.98659C7.16742 6.63244 7.05409 6.17558 7.05409 5.61601V0.378071H8.04218V5.47789C8.04218 5.90996 8.11301 6.24641 8.25467 6.48723C8.40341 6.72098 8.5982 6.88743 8.83902 6.98659C9.07985 7.07867 9.34192 7.12471 9.62525 7.12471C9.91565 7.12471 10.1813 7.07513 10.4221 6.97597C10.6629 6.8768 10.8577 6.71035 11.0064 6.47661C11.1552 6.23578 11.2296 5.90288 11.2296 5.47789ZM13.9618 0.378071H18.5836V1.27054L14.8224 6.93347H18.6048V7.80469H13.6643V6.93347L17.468 1.24929H13.9618V0.378071ZM20.5296 0.378071H25.1513V1.27054L21.3902 6.93347H25.1726V7.80469H20.2321V6.93347L24.0357 1.24929H20.5296V0.378071Z"/>
</mask>
<path d="M0.762563 7.80469H0.430543V8.13671H0.762563V7.80469ZM0.762563 0.378071V0.0460515H0.430543V0.378071H0.762563ZM5.02304 0.888054L4.81132 1.14388L4.81617 1.14775L5.02304 0.888054ZM5.3949 3.2786L5.1019 3.12233L5.09926 3.12749L5.3949 3.2786ZM4.6618 3.9267L4.55273 3.61311L3.63193 3.93338L4.55681 4.24168L4.6618 3.9267ZM5.5649 4.5748L5.29555 4.76898L5.29776 4.77197L5.5649 4.5748ZM5.63927 6.7316L5.93224 6.88785L5.93363 6.88518L5.63927 6.7316ZM4.88492 7.5072L4.71499 7.22196L4.88492 7.5072ZM1.7294 1.21742V0.885398H1.39738V1.21742H1.7294ZM1.7294 3.56546H1.39738V3.89748H1.7294V3.56546ZM4.24744 3.33172L4.41716 3.61716L4.42273 3.6137L4.24744 3.33172ZM4.24744 1.47241L4.06673 1.75101L4.07216 1.75439L4.24744 1.47241ZM1.7294 4.40481V4.07279H1.39738V4.40481H1.7294ZM1.7294 6.96534H1.39738V7.29736H1.7294V6.96534ZM4.55556 6.6041L4.31018 6.38037L4.30659 6.38443L4.55556 6.6041ZM4.55556 4.76604L4.30647 4.98582L4.31356 4.99337L4.55556 4.76604ZM3.65246 7.47267H0.762563V8.13671H3.65246V7.47267ZM1.09458 7.80469V0.378071H0.430543V7.80469H1.09458ZM0.762563 0.710091H3.4081V0.0460515H0.762563V0.710091ZM3.4081 0.710091C4.01637 0.710091 4.4737 0.864399 4.81135 1.14384L5.23472 0.632268C4.75074 0.231732 4.13144 0.0460515 3.4081 0.0460515V0.710091ZM4.81617 1.14775C5.14635 1.41078 5.31787 1.77088 5.31787 2.26926H5.98191C5.98191 1.59184 5.73553 1.03114 5.22991 0.628361L4.81617 1.14775ZM5.31787 2.26926C5.31787 2.56779 5.24683 2.8507 5.10194 3.12235L5.68786 3.43484C5.88297 3.06902 5.98191 2.67903 5.98191 2.26926H5.31787ZM5.09926 3.12749C4.97366 3.37323 4.79444 3.52903 4.55273 3.61311L4.77088 4.24029C5.18081 4.0977 5.49032 3.82143 5.69054 3.4297L5.09926 3.12749ZM4.55681 4.24168C4.87836 4.34886 5.11981 4.52517 5.29557 4.76897L5.83422 4.38063C5.57083 4.01529 5.21022 3.75952 4.7668 3.61172L4.55681 4.24168ZM5.29776 4.77197C5.46706 5.00134 5.56224 5.30008 5.56224 5.69039H6.22628C6.22628 5.18823 6.10188 4.74324 5.83203 4.37763L5.29776 4.77197ZM5.56224 5.69039C5.56224 6.00535 5.4901 6.29972 5.3449 6.57802L5.93363 6.88518C6.12842 6.51184 6.22628 6.11206 6.22628 5.69039H5.56224ZM5.34631 6.57536C5.20688 6.83679 4.99982 7.05227 4.71499 7.22196L5.05485 7.79244C5.43583 7.56547 5.73167 7.26389 5.93223 6.88784L5.34631 6.57536ZM4.71499 7.22196C4.44529 7.38263 4.09681 7.47267 3.65246 7.47267V8.13671C4.18558 8.13671 4.65873 8.02842 5.05485 7.79244L4.71499 7.22196ZM1.39738 1.21742V3.56546H2.06142V1.21742H1.39738ZM1.7294 3.89748H3.25935V3.23344H1.7294V3.89748ZM3.25935 3.89748C3.69816 3.89748 4.09047 3.81133 4.41713 3.6171L4.07775 3.04634C3.88027 3.16376 3.61385 3.23344 3.25935 3.23344V3.89748ZM4.42273 3.6137C4.82316 3.36478 4.97257 2.91724 4.97257 2.40738H4.30853C4.30853 2.80415 4.19587 2.97283 4.07216 3.04974L4.42273 3.6137ZM4.97257 2.40738C4.97257 1.8929 4.82457 1.44023 4.42273 1.19043L4.07216 1.75439C4.19446 1.83041 4.30853 2.00105 4.30853 2.40738H4.97257ZM4.42812 1.19386C4.09944 0.980659 3.70294 0.885398 3.25935 0.885398V1.54944C3.60907 1.54944 3.87129 1.62417 4.06676 1.75096L4.42812 1.19386ZM3.25935 0.885398H1.7294V1.54944H3.25935V0.885398ZM1.39738 4.40481V6.96534H2.06142V4.40481H1.39738ZM1.7294 7.29736H3.53559V6.63332H1.7294V7.29736ZM3.53559 7.29736C4.05406 7.29736 4.50467 7.1636 4.80452 6.82378L4.30659 6.38443C4.18146 6.52626 3.95209 6.63332 3.53559 6.63332V7.29736ZM4.8009 6.8278C5.08468 6.51657 5.21694 6.12449 5.21694 5.67976H4.5529C4.5529 5.98584 4.46559 6.20999 4.31021 6.3804L4.8009 6.8278ZM5.21694 5.67976C5.21694 5.23528 5.0847 4.8444 4.79755 4.53872L4.31356 4.99337C4.46556 5.15518 4.5529 5.37343 4.5529 5.67976H5.21694ZM4.80452 4.54637C4.50467 4.20655 4.05406 4.07279 3.53559 4.07279V4.73683C3.95209 4.73683 4.18146 4.84389 4.30659 4.98571L4.80452 4.54637ZM3.53559 4.07279H1.7294V4.73683H3.53559V4.07279ZM11.2296 0.378071V0.0460515H10.8975V0.378071H11.2296ZM12.2177 0.378071H12.5497V0.0460515H12.2177V0.378071ZM11.8564 6.99722L11.5836 6.80792L11.581 6.81175L11.8564 6.99722ZM10.9108 7.76219L11.0341 8.07047L11.037 8.06931L10.9108 7.76219ZM8.31842 7.75156L8.19032 8.05788L8.31842 7.75156ZM7.39407 6.98659L7.11441 7.16558L7.11608 7.16814L7.39407 6.98659ZM7.05409 0.378071V0.0460515H6.72207V0.378071H7.05409ZM8.04218 0.378071H8.3742V0.0460515H8.04218V0.378071ZM8.25467 6.48723L7.96832 6.65568L7.97456 6.66549L8.25467 6.48723ZM8.83902 6.98659L8.71257 7.2937L8.72045 7.29671L8.83902 6.98659ZM10.4221 6.97597L10.5485 7.28298L10.4221 6.97597ZM11.0064 6.47661L11.2866 6.65488L11.2889 6.65108L11.0064 6.47661ZM11.5616 5.47789V0.378071H10.8975V5.47789H11.5616ZM11.2296 0.710091H12.2177V0.0460515H11.2296V0.710091ZM11.8856 0.378071V5.61601H12.5497V0.378071H11.8856ZM11.8856 5.61601C11.8856 6.14578 11.7743 6.53317 11.5836 6.80794L12.1292 7.18649C12.4202 6.76712 12.5497 6.2337 12.5497 5.61601H11.8856ZM11.581 6.81175C11.3849 7.103 11.1223 7.31642 10.7847 7.45506L11.037 8.06931C11.4927 7.88214 11.8605 7.58557 12.1318 7.18268L11.581 6.81175ZM10.7875 7.45392C10.4414 7.59236 10.0553 7.66391 9.62525 7.66391V8.32795C10.1302 8.32795 10.6011 8.24367 11.0341 8.07046L10.7875 7.45392ZM9.62525 7.66391C9.18143 7.66391 8.7902 7.58897 8.44651 7.44525L8.19032 8.05788C8.62578 8.23998 9.10577 8.32795 9.62525 8.32795V7.66391ZM8.44651 7.44525C8.11705 7.30748 7.86166 7.09536 7.67206 6.80505L7.11608 7.16814C7.37981 7.57196 7.74064 7.86983 8.19032 8.05788L8.44651 7.44525ZM7.67373 6.80761C7.49085 6.52187 7.38611 6.13264 7.38611 5.61601H6.72207C6.72207 6.21852 6.84398 6.74301 7.11442 7.16557L7.67373 6.80761ZM7.38611 5.61601V0.378071H6.72207V5.61601H7.38611ZM7.05409 0.710091H8.04218V0.0460515H7.05409V0.710091ZM7.71016 0.378071V5.47789H8.3742V0.378071H7.71016ZM7.71016 5.47789C7.71016 5.93953 7.7847 6.34313 7.96849 6.65557L8.54085 6.31889C8.44132 6.14969 8.3742 5.8804 8.3742 5.47789H7.71016ZM7.97456 6.66549C8.15756 6.95307 8.40437 7.16668 8.71261 7.2936L8.96544 6.67958C8.79203 6.60818 8.64927 6.48888 8.53478 6.30898L7.97456 6.66549ZM8.72045 7.29671C9.0027 7.40464 9.3054 7.45673 9.62525 7.45673V6.79269C9.37845 6.79269 9.157 6.75271 8.9576 6.67647L8.72045 7.29671ZM9.62525 7.45673C9.95403 7.45673 10.2632 7.40045 10.5485 7.28298L10.2957 6.66895C10.0993 6.74981 9.87727 6.79269 9.62525 6.79269V7.45673ZM10.5485 7.28298C10.8568 7.15606 11.1036 6.94244 11.2866 6.65486L10.7263 6.29836C10.6119 6.47826 10.4691 6.59755 10.2957 6.66895L10.5485 7.28298ZM11.2889 6.65108C11.4824 6.3378 11.5616 5.93574 11.5616 5.47789H10.8975C10.8975 5.87002 10.828 6.13376 10.724 6.30213L11.2889 6.65108ZM13.9618 0.378071V0.0460515H13.6298V0.378071H13.9618ZM18.5836 0.378071H18.9156V0.0460515H18.5836V0.378071ZM18.5836 1.27054L18.8601 1.45423L18.9156 1.37075V1.27054H18.5836ZM14.8224 6.93347L14.5459 6.74978L14.2033 7.26549H14.8224V6.93347ZM18.6048 6.93347H18.9368V6.60145H18.6048V6.93347ZM18.6048 7.80469V8.13671H18.9368V7.80469H18.6048ZM13.6643 7.80469H13.3323V8.13671H13.6643V7.80469ZM13.6643 6.93347L13.3884 6.74882L13.3323 6.83263V6.93347H13.6643ZM17.468 1.24929L17.7439 1.43394L18.0896 0.917271H17.468V1.24929ZM13.9618 1.24929H13.6298V1.58131H13.9618V1.24929ZM13.9618 0.710091H18.5836V0.0460515H13.9618V0.710091ZM18.2515 0.378071V1.27054H18.9156V0.378071H18.2515ZM18.307 1.08685L14.5459 6.74978L15.099 7.11716L18.8601 1.45423L18.307 1.08685ZM14.8224 7.26549H18.6048V6.60145H14.8224V7.26549ZM18.2728 6.93347V7.80469H18.9368V6.93347H18.2728ZM18.6048 7.47267H13.6643V8.13671H18.6048V7.47267ZM13.9964 7.80469V6.93347H13.3323V7.80469H13.9964ZM13.9403 7.11812L17.7439 1.43394L17.192 1.06464L13.3884 6.74882L13.9403 7.11812ZM17.468 0.917271H13.9618V1.58131H17.468V0.917271ZM14.2939 1.24929V0.378071H13.6298V1.24929H14.2939ZM20.5296 0.378071V0.0460515H20.1976V0.378071H20.5296ZM25.1513 0.378071H25.4833V0.0460515H25.1513V0.378071ZM25.1513 1.27054L25.4279 1.45423L25.4833 1.37075V1.27054H25.1513ZM21.3902 6.93347L21.1136 6.74978L20.7711 7.26549H21.3902V6.93347ZM25.1726 6.93347H25.5046V6.60145H25.1726V6.93347ZM25.1726 7.80469V8.13671H25.5046V7.80469H25.1726ZM20.2321 7.80469H19.9001V8.13671H20.2321V7.80469ZM20.2321 6.93347L19.9562 6.74882L19.9001 6.83263V6.93347H20.2321ZM24.0357 1.24929L24.3117 1.43394L24.6574 0.917271H24.0357V1.24929ZM20.5296 1.24929H20.1976V1.58131H20.5296V1.24929ZM20.5296 0.710091H25.1513V0.0460515H20.5296V0.710091ZM24.8193 0.378071V1.27054H25.4833V0.378071H24.8193ZM24.8747 1.08685L21.1136 6.74978L21.6668 7.11716L25.4279 1.45423L24.8747 1.08685ZM21.3902 7.26549H25.1726V6.60145H21.3902V7.26549ZM24.8405 6.93347V7.80469H25.5046V6.93347H24.8405ZM25.1726 7.47267H20.2321V8.13671H25.1726V7.47267ZM20.5641 7.80469V6.93347H19.9001V7.80469H20.5641ZM20.5081 7.11812L24.3117 1.43394L23.7598 1.06464L19.9562 6.74882L20.5081 7.11812ZM24.0357 0.917271H20.5296V1.58131H24.0357V0.917271ZM20.8616 1.24929V0.378071H20.1976V1.24929H20.8616Z" fill="#EBFF00" mask="url(#path-1-outside-1_194_250076)"/>
</svg>
