<svg width="21" height="21" viewBox="0 0 21 21" fill="none" xmlns="http://www.w3.org/2000/svg">
<path d="M4.68812 12.3536C3.69646 12.1369 2.82629 11.5369 2.26115 10.6802C1.69602 9.82335 1.48011 8.77675 1.65898 7.76112C1.83785 6.74548 2.3975 5.84023 3.21989 5.23633C4.04228 4.63243 5.06309 4.37708 6.06699 4.52417C6.31404 3.95377 6.66211 3.43445 7.09381 2.99212C7.54801 2.52889 8.08759 2.16137 8.68163 1.9106C9.27567 1.65984 9.91251 1.53076 10.5557 1.53076C11.1988 1.53076 11.8357 1.65984 12.4297 1.9106C13.0237 2.16137 13.5633 2.52889 14.0175 2.99212C14.4492 3.43445 14.7973 3.95377 15.0443 4.52417C16.0482 4.37708 17.069 4.63243 17.8914 5.23633C18.7138 5.84023 19.2735 6.74548 19.4523 7.76112C19.6312 8.77675 19.4153 9.82335 18.8502 10.6802C18.285 11.5369 17.4149 12.1369 16.4232 12.3536V19.4468H4.68812V12.3536Z" fill="white" stroke="black" stroke-width="2.03048" stroke-linecap="round" stroke-linejoin="round"/>
<path d="M4.68848 15.4678H16.4236" stroke="black" stroke-width="2.03048" stroke-linecap="round" stroke-linejoin="round"/>
</svg>
