<svg width="28" height="29" viewBox="0 0 28 29" fill="none" xmlns="http://www.w3.org/2000/svg">
<g clip-path="url(#clip0_127_8049)">
<path d="M14.5 27C21.4036 27 27 21.4036 27 14.5C27 7.59644 21.4036 2 14.5 2C7.59644 2 2 7.59644 2 14.5C2 21.4036 7.59644 27 14.5 27Z" fill="#0052FF"/>
<path d="M14.605 10.8337C16.0767 10.8337 17.2441 11.7415 17.6875 13.0913H20.6523C20.1152 10.2053 17.7341 8.25 14.6287 8.25C11.1021 8.25 8.34766 10.927 8.34766 14.512C8.34766 18.0969 11.0332 20.75 14.6287 20.75C17.6646 20.75 20.093 18.7947 20.6306 15.8848H17.6873C17.2668 17.2349 16.1003 18.1663 14.6277 18.1663C12.5957 18.1663 11.1716 16.6064 11.1716 14.512C11.1726 12.3936 12.5737 10.8337 14.605 10.8337Z" fill="white"/>
</g>
<defs>
<clipPath id="clip0_127_8049">
<rect width="25" height="25" fill="white" transform="translate(2 2)"/>
</clipPath>
</defs>
</svg>
