<svg width="37" height="38" viewBox="0 0 37 38" fill="none" xmlns="http://www.w3.org/2000/svg">
<path d="M8.5731 22.1036C6.86697 21.7232 5.36983 20.6694 4.39752 19.1646C3.42521 17.6599 3.05375 15.8217 3.36149 14.038C3.66923 12.2542 4.63211 10.6644 6.04702 9.60374C7.46193 8.54311 9.21824 8.09466 10.9454 8.35299C11.3705 7.35119 11.9693 6.43911 12.7121 5.66226C13.4935 4.8487 14.4219 4.20323 15.4439 3.76281C16.466 3.3224 17.5616 3.0957 18.6682 3.0957C19.7747 3.0957 20.8704 3.3224 21.8924 3.76281C22.9145 4.20323 23.8428 4.8487 24.6242 5.66226C25.367 6.43911 25.9658 7.35119 26.3909 8.35299C28.1181 8.09466 29.8744 8.54311 31.2893 9.60374C32.7042 10.6644 33.6671 12.2542 33.9748 14.038C34.2826 15.8217 33.9111 17.6599 32.9388 19.1646C31.9665 20.6694 30.4694 21.7232 28.7632 22.1036V34.5613H8.5731V22.1036Z" stroke="white" stroke-width="3.10617" stroke-linecap="round" stroke-linejoin="round"/>
<path d="M8.57288 27.5723H28.763" stroke="white" stroke-width="3.10617" stroke-linecap="round" stroke-linejoin="round"/>
</svg>
