<svg width="231" height="141" viewBox="0 0 231 141" fill="none" xmlns="http://www.w3.org/2000/svg">
<path d="M176.362 45.4706C177.691 43.698 179.825 40.1279 181.303 35.8323M181.303 35.8323C182.266 33.0322 182.95 29.9238 182.95 26.8039C182.95 16.9216 182.95 19.6667 180.205 11.4314C177.46 3.19608 169.773 2.64706 165.93 2.09804C162.087 1.54902 158.244 1 155.499 1C153.303 1 147.264 2.46405 144.519 3.19608C142.871 3.7451 135.734 5.39216 134.636 5.39216C132.624 5.20925 128.491 6.1598 128.048 11.4232C128.048 11.4285 128.048 11.4338 128.048 11.4391C128.231 13.821 128.376 18.6789 127.499 19.1176C126.401 19.6667 125.303 23.5098 123.655 25.1569C122.008 26.8039 120.91 28.451 120.361 29C119.813 29.549 119.812 31.7451 118.714 32.2941C117.837 32.7329 114.695 36.8604 113.229 38.8759C113.226 38.8803 113.223 38.8846 113.221 38.8896C112.675 39.9891 112.354 42.4982 115.401 43.8152C115.413 43.8206 115.427 43.8235 115.441 43.8235H122.516C122.543 43.8235 122.567 43.8135 122.586 43.7948C123.511 42.8838 125.514 41.5472 126.39 43.2528C126.397 43.2666 126.401 43.2823 126.4 43.2978C126.396 43.6752 126.282 44.4914 125.852 44.9216C125.441 45.3318 124.999 46.0931 124.794 46.4901C124.77 46.5349 124.785 46.5896 124.827 46.6176L125.852 47.3007M181.303 35.8323L183.499 76.2157C183.682 77.4967 184.158 80.1686 184.597 80.6078M184.597 80.6078H181.852C180.937 80.6078 178.997 80.8275 178.558 81.7059C178.193 82.4361 174.008 83.9756 170.925 85M184.597 80.6078C190.636 80.7909 203.922 82.5843 208.754 88.2941C214.793 95.4314 219.734 94.8824 221.381 97.6275C222.696 99.8187 228.493 108.023 231.246 111.877C231.258 111.894 231.264 111.913 231.264 111.934V140.9C231.264 140.955 231.219 141 231.164 141H203.296C203.275 141 203.254 140.993 203.237 140.981C198.426 137.439 194.886 131.146 192.832 126.307M167.028 70.1765C166.845 71.4575 166.37 74.1294 165.93 74.5686C165.381 75.1177 164.283 76.7647 164.283 77.3137C164.283 77.7529 161.721 80.0588 160.44 81.1569C159.525 81.8889 157.695 83.5726 157.695 84.451V85M170.925 85C170.299 85.2079 169.718 85.3946 169.224 85.549C167.028 86.281 162.526 87.8549 162.087 88.2941C161.652 88.7297 160.1 89.2013 159.36 89.3876C159.348 89.3907 159.337 89.396 159.326 89.4034L149.46 96.5294C147.264 98.1765 142.762 100.922 142.322 98.7255C141.883 96.5294 142.871 94.8824 143.42 94.3333C143.603 94.1503 144.189 93.2353 145.068 91.0392C145.94 88.8575 149.414 85.4115 151.074 83.931C151.096 83.912 151.107 83.8856 151.107 83.8571C151.107 83.7072 151.107 83.5367 151.107 83.3529M170.925 85V87.7001C170.925 87.7287 170.937 87.756 170.959 87.7749L175.066 91.4134C175.135 91.4744 175.092 91.5882 175 91.5882H167.17C167.101 91.5882 167.053 91.6567 167.076 91.7219L169.695 99.0547C169.724 99.1375 169.641 99.216 169.561 99.1808C167.85 98.4337 164.704 97.2064 164.283 97.6275C163.859 98.0516 164.425 100.216 164.794 101.353C164.813 101.414 164.773 101.477 164.71 101.484C163.333 101.624 160.98 101.652 160.173 100.951C160.086 100.876 160.06 100.894 160.097 101.003C162.627 108.306 171.962 121.749 191.109 121.784C191.153 121.784 191.194 121.813 191.206 121.856C191.55 123.023 192.096 124.572 192.832 126.307M192.832 126.307C192.287 128.083 191.849 133.468 194.432 140.865C194.455 140.931 194.407 141 194.338 141H123.718C123.68 141 123.646 140.98 123.629 140.946C121.795 137.253 118.613 128.341 120.362 121.784M120.362 121.784C122.009 122.333 125.413 123.102 125.852 121.784C126.401 120.137 127.499 106.412 128.048 104.765C128.597 103.118 135.735 90.4902 138.48 89.3922C140.676 88.5137 147.813 85 151.107 83.3529M120.362 121.784C111.578 121.235 103.891 112.451 102.793 111.902C101.927 111.469 101.345 111.356 101.154 111.353C101.148 111.353 101.143 111.352 101.137 111.352C88.0086 109.159 77.4254 96.9768 73.732 91.0987C73.7089 91.062 73.6675 91.0462 73.6252 91.0554C71.8319 91.4434 67.8148 90.1147 66.0084 89.3922M151.107 83.3529C151.107 82.17 151.107 80.4339 151.107 80.0588C151.107 79.5098 150.009 78.4118 148.362 76.2157C147.048 74.4648 147.444 71.4778 147.809 70.1895C147.811 70.1806 147.813 70.1718 147.813 70.1625V69.4734M151.107 83.3529L146.176 81.7091C146.169 81.707 146.163 81.7055 146.156 81.7047C140.124 80.9747 127.107 80.5019 123.13 84.4288C123.115 84.4434 123.096 84.4528 123.076 84.4563L119.837 84.996C119.821 84.9986 119.806 85.005 119.794 85.0146L117.709 86.5784C117.66 86.6148 117.592 86.603 117.563 86.5503C114.035 80.2994 103.828 68.0983 90.7244 68.5291C90.7182 68.5293 90.712 68.5289 90.7058 68.528L83.606 67.4357C83.5876 67.4329 83.5712 67.4257 83.557 67.4136C79.6932 64.1217 67.6375 59.3236 50.1156 66.3221C50.0976 66.3293 50.0782 66.3315 50.0592 66.3276C49.1308 66.1361 47.1139 65.4414 46.2445 64.1373C45.3677 62.8222 40.4076 61.0331 38.0231 60.2984C38.0136 60.2955 38.0041 60.2941 37.9941 60.2941H28.6977C28.6833 60.2941 28.6698 60.2913 28.6567 60.2853C24.2541 58.271 14.0636 54.8071 8.36212 57C2.66468 59.1913 5.23979 61.5649 7.25099 62.4842C7.25979 62.4883 7.26895 62.4909 7.27852 62.4922L23.1852 64.6863C15.689 64.5034 0.922698 65.5627 1.77101 71.2585C1.77254 71.2688 1.77547 71.2786 1.78022 71.2879C2.53447 72.753 7.30372 75.111 20.4402 72.9216C14.95 74.2026 3.42056 78.302 1.22449 84.451C-0.971593 90.6 13.4859 84.817 20.9892 81.1569C23.0021 80.0588 27.5771 78.5216 29.7731 81.1569C31.9692 83.7922 28.1261 86.281 25.93 87.1961C22.6423 89.0226 16.4014 93.9846 17.6871 99.2438C17.6919 99.2636 17.7023 99.2812 17.7177 99.2945C19.1971 100.576 22.8714 102.557 25.93 100.373C29.0045 98.1765 31.2372 95.4314 31.9692 94.3333L37.4594 86.6471C37.8254 86.098 38.7771 85.1098 39.6555 85.549C40.7535 86.098 44.5967 89.3922 45.6947 89.3922C46.7927 89.3922 63.8123 89.9412 66.0084 89.3922M66.0084 89.3922C65.13 88.0745 65.6424 84.451 66.0084 82.8039M87.9692 82.8039C90.8973 82.6209 97.0829 82.3647 98.4006 82.8039C100.048 83.3529 103.891 86.098 104.44 86.098C104.989 86.098 105.538 86.6471 106.087 87.1961C106.636 87.7451 106.636 91.0392 107.734 92.6863C108.612 94.0039 108.466 95.0654 108.283 95.4314M123.655 38.3333C124.568 37.4212 126.716 36.0362 128.035 37.7678C128.043 37.7784 128.049 37.7905 128.052 37.8034C128.239 38.5374 128.814 40.0692 129.674 40.5187C129.688 40.5259 129.703 40.5294 129.718 40.5294H130.793M128.048 48.7647L126.95 48.0327M125.852 47.3007C125.611 47.2203 124.417 47.2811 123.107 47.7928M125.852 47.3007L126.95 48.0327M123.107 47.7928C121.438 48.445 119.579 49.8301 119.265 52.5898C119.264 52.6016 119.265 52.6134 119.268 52.6249C119.461 53.359 120.378 54.5775 122.557 53.7059M123.107 47.7928C123.839 47.4457 125.632 47.0079 126.95 48.0327M122.557 53.7059H130.22C130.236 53.7059 130.251 53.7023 130.265 53.6953L132.343 52.6561C132.395 52.6301 132.414 52.5652 132.384 52.5152L130.969 50.1572C130.918 50.0714 131.003 49.9834 131.085 50.0413C131.882 50.6064 133.151 52.0936 133.538 54.8039M122.557 53.7059C122.008 54.0719 121.02 55.1333 121.459 56.451C121.617 56.9234 122 57.3958 122.557 57.8034M129.146 58.6471C126.405 59.4302 123.943 58.817 122.557 57.8034M122.557 57.8034C123.655 58.9997 125.412 61.7216 123.655 63.0392C121.459 64.6863 118.167 66.3333 117.617 67.4314C117.182 68.3007 116.353 69.6001 115.981 70.1591C115.973 70.1709 115.968 70.1831 115.966 70.1971C115.79 71.3045 116.095 73.6957 118.714 74.5686C121.243 75.4117 122.289 75.985 122.531 76.1916C122.549 76.2068 122.57 76.2168 122.593 76.219L128.597 76.7647H133.502C133.525 76.7647 133.548 76.7567 133.565 76.7421L139.561 71.8364C139.572 71.8279 139.583 71.8217 139.596 71.8179C141.808 71.1675 145.625 70.0614 147.813 69.4734M147.813 69.4734C148.676 69.2412 149.286 69.0899 149.444 69.0791C149.454 69.0783 149.464 69.0769 149.475 69.0735C154.946 67.2494 165.943 63.4017 166.473 62.5019C166.478 62.4926 166.482 62.4868 166.49 62.4793C167.057 61.9267 169.224 60.8287 169.224 58.6471C169.224 56.451 170.322 48.2157 167.577 46.5686M154.95 37.2353C156.414 38.3333 159.342 41.0784 159.342 43.2745C159.342 45.3673 159.674 46.2967 159.864 46.5379C159.88 46.5587 159.891 46.5835 159.891 46.6101V50.3797C159.891 50.4006 159.885 50.4203 159.873 50.4372C158.95 51.7264 157.033 54.2549 156.597 54.2549C156.048 54.2549 154.95 54.8039 154.401 54.8039C153.961 54.8039 152.754 56.268 152.204 57L151.106 58.6471M160.989 19.1176C160.806 18.2026 160.769 16.2627 162.087 15.8235C163.404 15.3843 164.466 14.1765 164.832 13.6275L167.028 9.23529M147.263 11.4314C148.727 10.8824 150.118 10.2235 143.969 9.78431C137.864 9.34826 131.976 11.7622 129.743 13.0506C129.712 13.0684 129.695 13.1003 129.695 13.1359V13.4949C129.695 13.5613 129.755 13.6102 129.819 13.5921C133.727 12.4877 142.483 10.5623 147.263 11.4314ZM147.263 11.4314L131.891 12.5294M147.263 11.4314L147.642 11.0531C147.705 10.9901 147.66 10.8824 147.571 10.8824H145.616L134.087 11.4314L143.969 10.3333L133.538 11.9804L144.518 10.3333M134.942 17.3002C134.425 17.4175 133.894 17.5623 133.358 17.7397C132.698 17.9585 132.03 18.2267 131.372 18.5538C131.352 18.5634 131.337 18.5791 131.327 18.5984L130.279 20.6939C130.258 20.7354 130.268 20.785 130.304 20.8146C131.428 21.7445 133.774 23.5098 134.636 23.5098C135.376 23.5098 135.648 23.25 135.716 23.0587C135.734 23.0066 135.779 22.9608 135.834 22.9608H136.283H136.832C137.198 22.9608 138.04 22.9608 138.479 22.9608C138.916 22.9608 141.563 22.9608 142.851 22.9608C142.865 22.9608 142.878 22.958 142.89 22.9527L146.681 21.3282C146.702 21.3188 146.72 21.3021 146.731 21.281L147.761 19.2208C147.788 19.1664 147.761 19.1004 147.703 19.0812L144.518 18.0196L143.716 17.8191M134.942 17.3002C134.657 18.821 134.855 21.9726 137.93 22.4118C141.773 22.9608 144.012 19.8147 143.716 17.8191M134.942 17.3002C135.513 17.1706 136.067 17.0747 136.592 17.0057M143.716 17.8191L141.712 17.3181M136.592 17.0057C138.126 16.8037 139.408 16.8318 140.126 16.9216L141.712 17.3181M136.592 17.0057C136.672 18.0757 137.381 20.1059 139.577 19.6667C141.773 19.2275 141.916 17.918 141.712 17.3181M131.891 18.5686L131.36 20.6934C131.349 20.7358 131.367 20.7802 131.405 20.803L134.942 22.9608M137.381 17.4706L140.947 17.794C141.04 17.8024 141.072 17.9233 140.994 17.9762L140.152 18.5512C140.135 18.5626 140.115 18.5686 140.095 18.5686H138.503C138.487 18.5686 138.472 18.565 138.458 18.5581L137.381 18.0196L139.028 19.1176M130.244 18.0196L137.907 13.6406C137.922 13.632 137.939 13.6272 137.957 13.6284C138.349 13.6557 138.465 14.2849 138.478 14.6579C138.479 14.6988 138.454 14.7354 138.416 14.7506L130.244 18.0196Z" stroke="white" stroke-width="1.5" stroke-linecap="round"/>
<path d="M162.636 35.0398C161.355 33.7588 159.452 30.7575 162.087 29.0006C164.698 27.2598 166.806 27.172 167.557 27.3486C167.571 27.3519 167.583 27.3582 167.594 27.3672L170.322 29.5496C170.505 29.7326 170.871 30.8672 170.871 33.9418C170.871 37.7137 170.871 41.4857 170.352 41.6241C170.333 41.6292 170.314 41.6335 170.297 41.6442C169.725 42.0152 168.094 42.7261 165.93 42.7261M163.185 40.53C163.185 39.4319 163.404 37.3457 164.283 37.7849C165.161 38.2241 166.113 38.3339 166.479 38.3339C166.845 38.3339 167.467 37.3457 167.028 33.3927C166.479 28.4516 163.734 31.7457 164.283 32.8437" stroke="white" stroke-width="1.5" stroke-linecap="round"/>
<circle cx="139.5" cy="18.5" r="1.5" fill="black"/>
</svg>
