<svg width="22" height="22" viewBox="0 0 22 22" fill="none" xmlns="http://www.w3.org/2000/svg">
<path d="M8.87775 15.1801V16.9557C8.87775 17.4266 8.69068 17.8782 8.35769 18.2112C8.02471 18.5442 7.57308 18.7313 7.10216 18.7313C6.63125 18.7313 6.17962 18.5442 5.84663 18.2112C5.51364 17.8782 5.32657 17.4266 5.32657 16.9557V4.52657C5.32657 4.05565 5.1395 3.60402 4.80651 3.27103C4.47353 2.93805 4.0219 2.75098 3.55098 2.75098C3.08007 2.75098 2.62844 2.93805 2.29545 3.27103C1.96246 3.60402 1.77539 4.05565 1.77539 4.52657V7.18995H4.43878" stroke="white" stroke-linecap="round" stroke-linejoin="round"/>
<path d="M19.5307 15.1807V16.9563C19.5307 17.4272 19.3436 17.8788 19.0106 18.2118C18.6776 18.5448 18.226 18.7318 17.7551 18.7318H7.10156" stroke="white" stroke-linecap="round" stroke-linejoin="round"/>
<path d="M16.8677 15.1801V4.52657C16.8677 4.05565 16.6806 3.60402 16.3477 3.27103C16.0147 2.93805 15.563 2.75098 15.0921 2.75098H3.55078" stroke="white" stroke-linecap="round" stroke-linejoin="round"/>
<path d="M19.5324 15.1807H8.87891" stroke="white" stroke-linecap="round" stroke-linejoin="round"/>
</svg>
