<svg width="33" height="32" viewBox="0 0 33 32" fill="none" xmlns="http://www.w3.org/2000/svg">
<path d="M13.8166 22.6388V25.3022C13.8166 26.0086 13.536 26.686 13.0365 27.1855C12.5371 27.685 11.8596 27.9656 11.1532 27.9656C10.4469 27.9656 9.76943 27.685 9.26995 27.1855C8.77046 26.686 8.48986 26.0086 8.48986 25.3022V6.6585C8.48986 5.95213 8.20925 5.27469 7.70977 4.7752C7.21029 4.27572 6.53285 3.99512 5.82647 3.99512C5.1201 3.99512 4.44266 4.27572 3.94317 4.7752C3.44369 5.27469 3.16309 5.95213 3.16309 6.6585V10.6536H7.15816" stroke="#004BFE" stroke-width="1.5" stroke-linecap="round" stroke-linejoin="round"/>
<path d="M29.798 22.6387V25.3021C29.798 26.0084 29.5174 26.6859 29.0179 27.1854C28.5184 27.6848 27.841 27.9654 27.1346 27.9654H11.1543" stroke="#004BFE" stroke-width="1.5" stroke-linecap="round" stroke-linejoin="round"/>
<path d="M25.8016 22.6388V6.6585C25.8016 5.95213 25.521 5.27469 25.0215 4.7752C24.522 4.27572 23.8446 3.99512 23.1382 3.99512H5.82617" stroke="#004BFE" stroke-width="1.5" stroke-linecap="round" stroke-linejoin="round"/>
<path d="M29.7967 22.6387H13.8164" stroke="#004BFE" stroke-width="1.5" stroke-linecap="round" stroke-linejoin="round"/>
</svg>
