<svg width="22" height="21" viewBox="0 0 22 21" fill="none" xmlns="http://www.w3.org/2000/svg">
<path d="M6.47205 8.10742H5.34705C4.84976 8.10742 4.37285 7.90988 4.02122 7.55825C3.66959 7.20662 3.47205 6.7297 3.47205 6.23242C3.47205 5.73514 3.66959 5.25823 4.02122 4.9066C4.37285 4.55497 4.84976 4.35742 5.34705 4.35742H6.47205" stroke="white" stroke-width="1.5" stroke-linecap="round" stroke-linejoin="round"/>
<path d="M15.472 8.10742H16.597C17.0943 8.10742 17.5712 7.90988 17.9229 7.55825C18.2745 7.20662 18.472 6.7297 18.472 6.23242C18.472 5.73514 18.2745 5.25823 17.9229 4.9066C17.5712 4.55497 17.0943 4.35742 16.597 4.35742H15.472" stroke="white" stroke-width="1.5" stroke-linecap="round" stroke-linejoin="round"/>
<path d="M4.97205 17.8574H16.972" stroke="white" stroke-width="1.5" stroke-linecap="round" stroke-linejoin="round"/>
<path d="M9.47205 12.3516V14.1066C9.47205 14.5191 9.11955 14.8416 8.74455 15.0141C7.85955 15.4191 7.22205 16.5366 7.22205 17.8566" stroke="white" stroke-width="1.5" stroke-linecap="round" stroke-linejoin="round"/>
<path d="M12.472 12.3516V14.1066C12.472 14.5191 12.8245 14.8416 13.1995 15.0141C14.0845 15.4191 14.722 16.5366 14.722 17.8566" stroke="white" stroke-width="1.5" stroke-linecap="round" stroke-linejoin="round"/>
<path d="M15.472 2.85742H6.47205V8.10742C6.47205 9.3009 6.94615 10.4455 7.79007 11.2894C8.63398 12.1333 9.77857 12.6074 10.972 12.6074C12.1655 12.6074 13.3101 12.1333 14.154 11.2894C14.9979 10.4455 15.472 9.3009 15.472 8.10742V2.85742Z" stroke="white" stroke-width="1.5" stroke-linecap="round" stroke-linejoin="round"/>
</svg>
