<svg width="28" height="29" viewBox="0 0 28 29" fill="none" xmlns="http://www.w3.org/2000/svg">
<path d="M13.4935 22.4648H15.0235L15.5146 24.7748H13.2588" fill="white"/>
<path d="M13.4935 22.4648H15.0235L15.5146 24.7748H13.2588" stroke="#004BFE" stroke-width="0.676407" stroke-linecap="round" stroke-linejoin="round"/>
<path d="M25.796 20.27L17.9699 20.4141L15.0242 22.465L15.2839 10.1327L16.9012 6.11891L24.7563 3L26.0273 6.86972L24.872 11.4328L24.9876 13.7427L24.2368 14.8506L25.796 20.27L24.3809 26.0168L18.6051 24.2263L15.5152 27.0273H13.4941" fill="white"/>
<path d="M25.796 20.27L17.9699 20.4141L15.0242 22.465L15.2839 10.1327L16.9012 6.11891L24.7563 3L26.0273 6.86972L24.872 11.4328L24.9876 13.7427L24.2368 14.8506L25.796 20.27ZM25.796 20.27L24.3809 26.0168L18.6051 24.2263L15.5152 27.0273H13.4941" stroke="#004BFE" stroke-width="0.676407" stroke-linecap="round" stroke-linejoin="round"/>
<path d="M24.2367 14.8507L18.7207 13.2231" stroke="#004BFE" stroke-width="0.676407" stroke-linecap="round" stroke-linejoin="round"/>
<path d="M24.8721 11.4325L25.8828 11.2593" stroke="#004BFE" stroke-width="0.676407" stroke-linecap="round" stroke-linejoin="round"/>
<path d="M25.8828 12.5303L24.9326 12.6456" stroke="#004BFE" stroke-width="0.676407" stroke-linecap="round" stroke-linejoin="round"/>
<path d="M15.1631 15.8552L20.5398 15.7358" stroke="#004BFE" stroke-width="0.676407" stroke-linecap="round" stroke-linejoin="round"/>
<path d="M21.3921 20.3512L18.6053 24.2263L17.9702 20.4141L20.5405 15.7354L18.721 13.2232L15.2842 10.1327L24.7566 3" fill="white"/>
<path d="M21.3921 20.3512L18.6053 24.2263L17.9702 20.4141L20.5405 15.7354L18.721 13.2232L15.2842 10.1327L24.7566 3" stroke="#004BFE" stroke-width="0.676407" stroke-linecap="round" stroke-linejoin="round"/>
<path d="M15.0234 22.4648L18.6045 24.2265" stroke="#004BFE" stroke-width="0.676407" stroke-linecap="round" stroke-linejoin="round"/>
<path d="M15.8467 18.8443L18.0017 18.0428L16.4636 17.2412L15.8467 18.8443Z" fill="white" stroke="#004BFE" stroke-width="0.676407" stroke-linecap="round" stroke-linejoin="round"/>
<path d="M16.9014 6.11865H13.4941" stroke="#004BFE" stroke-width="0.676407" stroke-linecap="round" stroke-linejoin="round"/>
<path d="M13.5328 22.4648H12.0028L11.5117 24.7748H13.2589" fill="white"/>
<path d="M13.5328 22.4648H12.0028L11.5117 24.7748H13.2589" stroke="#004BFE" stroke-width="0.676407" stroke-linecap="round" stroke-linejoin="round"/>
<path d="M1.23133 20.27L9.05736 20.4141L12.0031 22.465L11.7434 10.1327L10.1261 6.11891L2.27097 3L1 6.86972L2.1553 11.4328L2.03964 13.7427L2.79045 14.8506L1.23133 20.27L2.64637 26.0168L8.42221 24.2263L11.512 27.0273H13.5331" fill="white"/>
<path d="M1.23133 20.27L9.05736 20.4141L12.0031 22.465L11.7434 10.1327L10.1261 6.11891L2.27097 3L1 6.86972L2.1553 11.4328L2.03964 13.7427L2.79045 14.8506L1.23133 20.27ZM1.23133 20.27L2.64637 26.0168L8.42221 24.2263L11.512 27.0273H13.5331" stroke="#004BFE" stroke-width="0.676407" stroke-linecap="round" stroke-linejoin="round"/>
<path d="M2.79004 14.8507L8.30607 13.2231" stroke="#004BFE" stroke-width="0.676407" stroke-linecap="round" stroke-linejoin="round"/>
<path d="M2.15529 11.4325L1.14453 11.2593" stroke="#004BFE" stroke-width="0.676407" stroke-linecap="round" stroke-linejoin="round"/>
<path d="M1.14453 12.5303L2.09468 12.6456" stroke="#004BFE" stroke-width="0.676407" stroke-linecap="round" stroke-linejoin="round"/>
<path d="M11.864 15.8552L6.4873 15.7358" stroke="#004BFE" stroke-width="0.676407" stroke-linecap="round" stroke-linejoin="round"/>
<path d="M5.63496 20.3512L8.42175 24.2263L9.0569 20.4141L6.48655 15.7354L8.30609 13.2232L11.7429 10.1327L2.27051 3" fill="white"/>
<path d="M5.63496 20.3512L8.42175 24.2263L9.0569 20.4141L6.48655 15.7354L8.30609 13.2232L11.7429 10.1327L2.27051 3" stroke="#004BFE" stroke-width="0.676407" stroke-linecap="round" stroke-linejoin="round"/>
<path d="M12.003 22.4648L8.42188 24.2265" stroke="#004BFE" stroke-width="0.676407" stroke-linecap="round" stroke-linejoin="round"/>
<path d="M11.1794 18.8443L9.02441 18.0428L10.5626 17.2412L11.1794 18.8443Z" fill="white" stroke="#004BFE" stroke-width="0.676407" stroke-linecap="round" stroke-linejoin="round"/>
<path d="M10.126 6.11865H13.5332" stroke="#004BFE" stroke-width="0.676407" stroke-linecap="round" stroke-linejoin="round"/>
</svg>
