<svg width="21" height="21" viewBox="0 0 21 21" fill="none" xmlns="http://www.w3.org/2000/svg">
<path d="M16.3936 2.88281H4.37C3.42137 2.88281 2.65234 3.65183 2.65234 4.60047V16.6241C2.65234 17.5727 3.42137 18.3417 4.37 18.3417H16.3936C17.3422 18.3417 18.1113 17.5727 18.1113 16.6241V4.60047C18.1113 3.65183 17.3422 2.88281 16.3936 2.88281Z" stroke="white" stroke-width="1.71766" stroke-linecap="round" stroke-linejoin="round"/>
<path d="M10.3812 11.4713C11.8041 11.4713 12.9577 10.3178 12.9577 8.89485C12.9577 7.47189 11.8041 6.31836 10.3812 6.31836C8.95822 6.31836 7.80469 7.47189 7.80469 8.89485C7.80469 10.3178 8.95822 11.4713 10.3812 11.4713Z" stroke="white" stroke-width="1.71766" stroke-linecap="round" stroke-linejoin="round"/>
<path d="M6.08594 18.3416V16.6239C6.08594 16.1684 6.2669 15.7315 6.58903 15.4093C6.91115 15.0872 7.34804 14.9062 7.8036 14.9062H12.9566C13.4121 14.9062 13.849 15.0872 14.1711 15.4093C14.4933 15.7315 14.6742 16.1684 14.6742 16.6239V18.3416" stroke="white" stroke-width="1.71766" stroke-linecap="round" stroke-linejoin="round"/>
</svg>
