<svg width="174" height="101" viewBox="0 0 174 101" fill="none" xmlns="http://www.w3.org/2000/svg">
<path d="M1 92.8294H9.30742C9.43464 92.8294 9.5605 92.8054 9.67826 92.7572C10.5626 92.3955 12.1266 91.7027 12.5 91.3294C13 90.8294 15.5 88.3294 18.5 87.8294C21.5 87.3294 23.5 85.8294 24.5 85.8294C24.9864 85.8294 27.2224 85.7061 29.5 85.5721M29.5 85.5721C30.9686 85.4856 32.4546 85.3947 33.5 85.3294L29.5 85.5721ZM29.5 85.5721L30.5 87.3294M29.5 85.5721L29.2103 84.852C29.0797 84.5275 29.1258 84.1564 29.3533 83.8908C29.9416 83.2041 30.852 82.3294 31.5 82.3294C32.3 82.3294 33.1667 81.6627 33.5 81.3294C34.8333 80.1627 37.5 77.5294 37.5 76.3294C37.5 75.2167 38.0732 74.3046 38.4223 73.9121C38.4726 73.8555 38.5202 73.797 38.5604 73.7328L40.848 70.0726C40.9473 69.9136 40.9977 69.73 41.0094 69.5429C41.0419 69.0223 41.167 68.3294 41.5 68.3294C42 68.3294 43.5 65.3294 43.5 64.8294C43.5 64.3294 43 59.3294 43.5 59.3294C44 59.3294 45 56.3294 45 55.8294C45 55.4402 46.5774 53.7576 47.4304 52.8992C47.4768 52.8525 47.5182 52.8024 47.5542 52.7473C48.2414 51.698 49.6105 49.2767 50 47.3294C50.4 45.3294 50.8333 43.8294 51 43.3294C51.3333 41.6627 52 38.2294 52 37.8294C52 37.3294 52 28.8294 52.5 27.8294C52.8582 27.113 52.9758 25.8085 52.9965 25.0649C53.0008 24.9097 53.0361 24.7571 53.1055 24.6183C53.4751 23.8792 54.1378 22.5537 54.5 21.8294C55 20.8294 57.5 14.8294 59 13.8294C60.5 12.8294 59.5 10.8294 60 10.3294C60.1418 10.1876 60.3639 10.0057 60.6436 9.8291M60.6436 9.8291C61.3505 9.3829 62.4253 8.97111 63.5 9.32935C65 9.82935 69.5 10.8293 71.5 11.8293C73.5 12.8293 76 14.8293 77 15.8293C78 16.8293 81 19.3293 82 20.3293C83 21.3293 87.5 26.8293 88.5 27.3293C89.5 27.8294 98.5 31.3293 105.5 31.8293C111.1 32.2293 124.833 27.3293 131 24.8294C133.333 23.496 138.2 20.3293 139 18.3293C139.8 16.3293 151.333 7.82931 157 3.82931C158.5 2.49598 162.3 0.129313 165.5 1.32931C168.627 2.502 169.462 5.04336 169.499 6.24718C169.5 6.30224 169.505 6.3564 169.514 6.41073L170 9.32935C170.167 10.1626 170.4 11.9291 170 12.3291C169.6 12.7291 169.5 14.8292 169.5 15.8293C169.333 18.8293 168.8 24.8294 168 24.8294C167.216 24.8294 166.688 27.0724 166.51 28.2596C166.503 28.3064 166.5 28.3528 166.499 28.4001C166.486 28.7614 166.374 29.4553 166 29.8291C165.639 30.1897 164.981 31.1194 164.61 31.6654C164.537 31.7735 164.487 31.8947 164.459 32.0222C164.257 32.9366 163.743 34.7139 163 35.8291C162 37.3291 161.5 36.8296 161.5 37.8294C161.5 38.8291 160 39.3291 160 39.8291C160 40.3291 159.5 42.8291 158.5 43.3291C157.5 43.8291 155.5 46.8291 155.5 47.8291C155.5 48.8291 155 55.8291 154.5 56.3291C154.105 56.7246 150.092 60.7368 148.069 62.7604C148.022 62.807 147.982 62.8563 147.945 62.9111C147.258 63.9447 145.889 66.0503 145.5 66.8291C145 67.8291 143.5 69.3291 143 69.3291C142.5 69.3291 140.5 69.8291 140 70.3291C139.5 70.8291 136 73.3291 135 73.3291C134.224 73.3291 132.76 73.9556 132.064 74.2976C132.021 74.3184 131.978 74.3364 131.933 74.352C131.416 74.5329 130.5 74.9462 130.5 75.3291C130.5 75.8291 129.5 75.3291 128.5 74.8291C127.707 74.4328 118.669 74.331 114.126 74.3291C114.04 74.3291 113.961 74.3191 113.879 74.2973C109.989 73.2667 101.563 70.2876 98 66.3291C94.4381 62.3714 88.6245 57.4347 86.0804 55.3935C86.0255 55.3494 85.9683 55.3134 85.9055 55.2814C84.8615 54.7504 82.6636 53.4927 81.5 52.3291C80.3 51.1291 75 45.8293 72.5 43.3294C71.6667 42.6626 69.8 40.7291 69 38.3291C68.2839 36.1809 66.4462 34.1395 65.3513 33.1372C65.1324 32.9368 65 32.6579 65 32.3611C65 31.8345 65 30.9665 65 29.8291C65 27.8294 65 25.8291 64.5 25.8291C64 25.8291 62 23.3291 62 21.3291C62 19.3291 62.7872 14.3291 60.6436 9.8291ZM66 41.3291C66.1667 41.6624 66.6 42.7291 67 44.3291C67.5 46.3291 67.5 46.8296 67.5 47.3294C67.5 47.8291 67.5 52.8288 67 54.3291C66.5 55.8294 67.5 57.8291 66.5 57.8291C65.7 57.8291 64.8333 58.8293 64.5 59.3294M108.5 78.3291C108.833 78.8291 109.6 80.1291 110 81.3291C110.5 82.8291 112.5 84.8291 114.5 85.3291M82 94.8291C83.1667 94.6624 85.8 94.4291 87 94.8291C88.064 95.1838 89.2066 96.0887 89.8005 96.6378C89.9335 96.7609 90.0929 96.8523 90.2687 96.8963L91.6249 97.2353C91.8663 97.2957 92.0775 97.443 92.2092 97.654C92.554 98.2064 93 99.0019 93 99.3291C93 99.8291 93.5 101.329 94 101.329C94.3622 101.329 97.7586 101.329 99.8821 101.329C100.261 101.329 100.604 101.114 100.799 100.789C101 100.453 101.256 100.073 101.5 99.8291C101.833 99.4958 102.19 98.6765 102.396 98.1233C102.467 97.9326 102.587 97.7637 102.75 97.6417L104.305 96.4754C104.433 96.3793 104.582 96.3154 104.74 96.2897C106.81 95.9536 110.615 95.4445 111 95.8291" stroke="black" stroke-width="1.5" stroke-linecap="round"/>
<path d="M49.5 85.8291C49.8465 85.8291 51.4689 85.8291 52.5467 85.8291C52.835 85.8291 53.1089 85.7046 53.2988 85.4876L56.2933 82.0653C56.4279 81.9115 56.5106 81.7203 56.5406 81.5182C56.7788 79.9131 57.6287 76.9519 59.5 75.8291C61.5 74.6291 65.3333 72.9958 67 72.3291M90.5 54.8291C94 58.3291 103.1 65.8291 111.5 67.8291C119.9 69.8291 125.667 69.9958 127.5 69.8291M114 37.3291C113.5 38.6624 112.4 41.4291 112 41.8291M127.5 30.8291C127.5 31.3291 119 31.3291 125 36.3291M143 26.3291C143.5 27.3291 144.5 29.5291 144.5 30.3291M132.5 24.8291C136.833 26.9958 144 31.9291 138 34.3291M164 14.3291C163.75 14.3291 161.75 14.3291 159.5 14.5166M153.5 15.8291C150.94 15.5091 145.921 15.7114 145.525 18.9143C145.492 19.1775 145.612 19.4296 145.766 19.6454C146.001 19.974 146.201 20.4119 146.156 20.85C146.093 21.4778 146.05 22.0282 146.677 22.1015C148.839 22.3543 153.224 22.4413 154 22.8291C155 23.3291 159.5 24.8291 160 24.8291C160.5 24.8291 163 19.8291 162 17.3291C161.2 15.3291 160 14.6208 159.5 14.5166M153.5 15.8291C154.75 15.0791 157.25 14.7041 159.5 14.5166M153.5 15.8291C153.167 17.8291 153.2 21.9291 156 22.3291C158.527 22.6901 160.158 21.9924 160.819 21.4854C160.944 21.3897 161.026 21.252 161.071 21.1014C161.708 18.9895 162.2 15.0469 159.5 14.5166M159.5 14.5166L154.674 16.9846C154.275 17.1884 154.061 17.6322 154.148 18.0711L154.425 19.4545C154.473 19.6957 154.609 19.9107 154.806 20.0583L156.158 21.0724C156.376 21.2363 156.653 21.3037 156.922 21.2588L159.184 20.8818C159.389 20.8475 159.579 20.7499 159.727 20.6025L160.207 20.122C160.395 19.9345 160.5 19.6801 160.5 19.4149V18.0652C160.5 17.9099 160.464 17.7568 160.394 17.618L160.149 17.1272C160.052 16.9337 159.895 16.7768 159.702 16.68L159.37 16.5143C159.133 16.3957 158.859 16.3762 158.607 16.4601L157.567 16.8066C157.523 16.8216 157.479 16.8397 157.436 16.8609L156.207 17.4755C155.817 17.6708 155.658 18.1457 155.854 18.5362V18.5362C155.947 18.7237 156.112 18.8664 156.311 18.9327L157.346 19.2778C157.448 19.3118 157.555 19.3291 157.662 19.3291H158.136C158.354 19.3291 158.546 19.1902 158.615 18.9842L158.689 18.7611C158.804 18.4172 158.446 18.1063 158.121 18.2684V18.2684C158.043 18.3078 157.979 18.3717 157.939 18.4504L157 20.3291L159 17.3291M78.5 31.8291C79.3685 31.7981 80.3985 31.7648 81.5 31.7336M103 37.8291C102.925 37.7539 102.635 37.5771 102.197 37.3291M102.197 37.3291C99.7194 35.9275 92.5 32.2539 92.5 31.8291C92.5 31.5035 86.3173 31.5975 81.5 31.7336M102.197 37.3291C102.298 38.3291 102.3 40.4291 101.5 40.8291C100.5 41.3291 87 42.3291 85 41.8291C83.5737 41.4725 80.9819 39.2352 79.4914 37.8092C79.1919 37.5226 79.1117 37.0792 79.2808 36.7007L81.5 31.7336M89 32.3291C87.3898 33.7783 84.9707 37.3743 87.6943 40.5019C87.8811 40.7165 88.1624 40.8201 88.4464 40.8043L96.3233 40.3667C96.7319 40.344 97.0864 40.0752 97.2091 39.6847C97.7099 38.0911 98.3486 35.7011 98 35.3291C97.6321 34.9365 93.2883 33.7058 90.6484 33.0007C90.2556 32.8959 89.8406 33.0417 89.5966 33.3669L88.5974 34.6993C88.5329 34.7853 88.4827 34.8811 88.4487 34.9831L87.631 37.4361C87.5471 37.6878 87.5666 37.9624 87.6852 38.1996L88.1918 39.2127C88.3774 39.5838 88.7729 39.8018 89.1857 39.7605L93.5 39.3291L95.9535 38.9786C96.5218 38.8974 96.9053 38.3555 96.7927 37.7925L96.5959 36.8087C96.5354 36.5061 96.3386 36.2484 96.0626 36.1104L94.6532 35.4057C94.5518 35.355 94.4425 35.3219 94.33 35.3079L90.9853 34.8898C90.6791 34.8515 90.3724 34.9567 90.1542 35.1749L89.7929 35.5362C89.6054 35.7237 89.5 35.9781 89.5 36.2433V36.8291C89.5 37.3814 89.9477 37.8291 90.5 37.8291H92.5L88.5 38.3291L93.7206 37.9562C94.4169 37.9065 94.7322 37.0613 94.2386 36.5677V36.5677C94.0858 36.4149 93.8786 36.3291 93.6626 36.3291H91.5M91.5 36.3291V36.3291C91.3548 36.3291 91.3293 36.5364 91.4701 36.5716L96.5 37.8291L91.5 36.3291Z" stroke="black" stroke-width="2" stroke-linecap="round"/>
<path d="M116.5 41.8291C116.608 41.7209 116.787 41.6127 117 41.4994M117 41.4994C117.772 41.0892 119 40.6127 119 39.8291C119 38.8291 128.5 39.3291 129 39.3291C129.5 39.3291 137 37.8291 137.5 37.8291C137.871 37.8291 139.702 37.8291 140.765 37.8291C140.92 37.8291 141.072 37.793 141.211 37.7235L143.847 36.4057C143.948 36.355 144.057 36.3219 144.17 36.3079L147.66 35.8717C147.88 35.8441 148.085 35.7437 148.243 35.5865L148.854 34.9748C149.22 34.6091 149.804 34.5826 150.202 34.9137L151.892 36.3221C152.248 36.6191 152.353 37.1224 152.146 37.5375L151.624 38.5814C151.543 38.7435 151.42 38.8799 151.267 38.9769C149.366 40.1816 145.884 42.3291 145.5 42.3291C145.108 42.3291 141.164 44.249 139.124 45.2672C139.041 45.3087 138.956 45.3374 138.864 45.3544C136.147 45.8587 130.68 46.7224 129.5 46.3291C128.419 45.9687 126.445 45.8518 125.333 45.8322C125.117 45.8284 124.906 45.7589 124.733 45.6291L123.195 44.4754C123.067 44.3793 122.918 44.3154 122.759 44.289L120.316 43.8818C120.111 43.8475 119.921 43.7499 119.773 43.6025L118.6 42.4288C118.534 42.3627 118.458 42.3061 118.377 42.2609L117 41.4994ZM149.5 35.8291C143.5 37.6624 129.2 41.1291 120 40.3291M119 41.4994C126.833 41.1093 144.2 39.6291 151 36.8291M151 37.8291C145.833 39.4958 132.4 42.8291 120 42.8291M124 43.8291C129 43.4958 140.8 42.2291 148 39.8291M143 42.3291C138.667 43.1069 129.1 44.5958 125.5 44.3291M129.5 45.3291L139.5 44.3291" stroke="black" stroke-width="2" stroke-linecap="round"/>
<path d="M126.5 74.8291V79.093C126.5 79.2483 126.536 79.4012 126.606 79.5397C127.142 80.5978 128.126 82.4554 128.5 82.8291C128.888 83.2169 131.186 84.2624 132.389 84.7815C132.463 84.8132 132.539 84.8357 132.618 84.8488C133.657 85.0206 135.615 85.3291 136 85.3291C136.5 85.3291 138 85.8291 139 85.8291C140 85.8291 142 85.8291 143 85.8291C144 85.8291 148.5 86.3291 149.5 86.3291C150.5 86.3291 153 86.8291 154 86.8291C155 86.8291 159 85.8291 160.5 86.3291C162 86.8291 163.5 86.8291 164 87.3291C164.5 87.8291 165 87.8291 166 88.3291C167 88.8291 166.5 88.3291 168.5 88.8291C170.5 89.3291 171 89.3291 171.5 89.3291C171.9 89.3291 172.667 89.3291 173 89.3291" stroke="black" stroke-width="2" stroke-linecap="round"/>
<path d="M122.5 45.3291L121.26 47.81C121.099 48.131 121.123 48.5134 121.322 48.812L121.832 49.5772C121.942 49.7414 122 49.9343 122 50.1317C122 50.5082 122 51.0248 122 51.3291C122 51.7291 122 52.8291 122 53.3291M126 46.8291L126.5 51.3291V52.6668C126.5 52.7743 126.483 52.8812 126.447 52.9824C126.253 53.5269 125.863 54.4661 125.5 54.8291C125.1 55.2291 124.667 56.3291 124.5 56.8291" stroke="#BFDAF5" stroke-width="2" stroke-linecap="round"/>
</svg>
