<svg width="89" height="83" viewBox="0 0 89 83" fill="none" xmlns="http://www.w3.org/2000/svg">
<path d="M11.9629 21.5579C10.509 23.7388 6.66212 27.7674 4.92044 29.5091C-0.241139 31.0993 -0.380335 73.7327 1.5128 82.8955H5.14762H87.6125C87.9155 68.8106 88.2032 40.2318 86.931 38.5961C85.3408 36.5516 81.4788 25.8743 81.2516 25.4199C81.0244 24.9656 78.7527 23.3753 77.844 22.921C77.117 22.5575 76.9353 21.7094 76.9353 21.3308C77.844 19.3316 76.1023 17.1659 75.1179 16.3329C75.4813 16.1511 75.5722 14.7427 75.5722 14.0611C75.2087 9.51761 71.483 7.32157 69.6656 6.79149L64.8949 5.20126C64.5163 4.97409 63.6227 4.33799 63.0775 3.61103C62.5323 2.88407 62.0931 2.55087 61.9416 2.47515H59.4427C59.0641 2.47515 58.216 2.38427 57.8525 2.02078C57.3981 1.5664 55.3535 2.02078 53.0818 2.02078C51.2644 2.02078 51.1129 3.68675 51.2644 4.51973C50.3557 3.45957 48.4474 1.29381 48.0839 1.11207C47.6295 0.884895 36.2707 2.02078 35.362 2.02078C34.4533 2.02078 32.4087 2.47513 31.7272 4.06536C31.182 5.33755 23.9275 11.7136 20.3684 14.7426C18.1724 16.1057 13.4168 19.377 11.9629 21.5579Z" fill="#589437" stroke="black" stroke-width="0.681528"/>
<path d="M64.5034 7.69806C57.779 6.60762 55.0377 9.36402 54.5076 10.8785C54.4319 11.03 54.3713 11.3328 54.7348 11.3328C55.1892 11.3328 66.548 11.56 67.2295 11.3328C67.6081 11.2571 68.4562 11.0148 68.8197 10.6513C69.1832 9.19739 66.0936 8.07668 64.5034 7.69806Z" fill="white" stroke="black" stroke-width="0.681528"/>
<path d="M40.65 7.47276C35.5613 6.92753 33.0775 9.36589 32.4717 10.6532C32.4717 12.2435 36.3337 11.5619 41.3315 11.5619C46.3294 11.5619 46.5566 10.426 46.7838 10.426C46.9834 10.426 47.0076 8.67189 42.6946 7.784C42.0993 7.66145 41.4215 7.55541 40.65 7.47276Z" fill="#F2F3F1" stroke="black" stroke-width="0.681528"/>
<path d="M42.0126 11.5606C41.2857 9.56145 42.3912 8.38013 42.9213 7.92578C46.3744 9.01623 46.5561 9.51601 46.7833 10.4247C45.6929 11.1517 43.1485 11.4849 42.0126 11.5606Z" fill="#000102" stroke="black" stroke-width="0.681528"/>
<path d="M64.0486 11.334C63.5034 10.2436 63.9729 8.45647 64.2758 7.69922L66.0931 8.38075C67.229 8.8351 69.319 9.92554 68.5921 10.6525C67.8651 11.3795 65.2602 11.4098 64.0486 11.334Z" fill="black" stroke="black" stroke-width="0.681528"/>
<path d="M4.89294 29.7262L9.13985 25.6562C40.5669 39.1048 70.8381 32.7934 82.0454 27.9567C83.1661 30.8469 85.6198 36.9106 86.4692 38.0431C87.3186 39.1756 87.531 41.8181 87.531 42.9978L87.8849 62.6398L87.531 82.2818H1.5308C-1.12352 53.6151 1.35384 41.0513 2.23862 35.7427C2.94643 31.4958 4.30309 29.9621 4.89294 29.7262Z" fill="#D2D2D2" stroke="black" stroke-width="0.683045"/>
<path d="M29.2026 20.4638C28.5968 19.3279 28.3848 17.0561 32.3831 17.0561C36.3814 17.0561 40.1071 15.8445 41.4702 15.2387C42.7575 14.7844 46.1954 13.9211 49.6485 14.1029C53.1016 14.2846 58.8113 14.1786 61.2345 14.1029C64.6421 13.9514 71.5028 13.6485 71.6846 13.6485C71.9118 13.6485 75.5466 13.1942 75.7738 15.2387C75.82 15.6547 75.5537 16.0305 75.0923 16.3647C76.001 15.856 79.6358 19.7823 77.1369 21.1453C74.6379 22.5084 65.778 23.6443 63.0519 22.9627C60.871 22.4175 56.691 21.9783 54.8736 21.8268C52.6776 21.9026 47.2859 22.054 43.2876 22.054C39.2893 22.054 36.6238 22.5084 35.7908 22.7356C30.8838 24.3712 29.2027 24.3258 28.9755 24.0986C26.9763 23.0082 28.2939 21.221 29.2026 20.4638Z" fill="#EC2027"/>
<path d="M29.2026 20.4638C28.5968 19.3279 28.3848 17.0561 32.3831 17.0561C36.3814 17.0561 40.1071 15.8445 41.4702 15.2387C42.7575 14.7844 46.1954 13.9211 49.6485 14.1029C53.1016 14.2846 58.8113 14.1786 61.2345 14.1029C64.6421 13.9514 71.5028 13.6485 71.6846 13.6485C71.9118 13.6485 75.5466 13.1942 75.7737 15.2387C75.82 15.6547 75.5537 16.0305 75.0923 16.3647M29.2026 20.4638C31.3987 20.4638 36.8358 20.1457 41.0158 18.8736C45.1958 17.6014 49.5728 17.5862 51.2387 17.7377C54.0406 17.8134 59.6897 17.9194 59.8714 17.7377C60.0986 17.5105 61.4617 17.2833 63.5062 17.7377C65.1419 18.1012 67.8226 18.192 68.9585 18.192C70.7089 17.9662 73.7394 17.3445 75.0923 16.3647M29.2026 20.4638C28.2939 21.221 26.9763 23.0082 28.9755 24.0986C29.2027 24.3258 30.8838 24.3712 35.7908 22.7356C36.6238 22.5084 39.2893 22.054 43.2876 22.054C47.2859 22.054 52.6776 21.9026 54.8736 21.8268C56.691 21.9783 60.871 22.4175 63.0519 22.9627C65.7781 23.6443 74.6379 22.5084 77.1369 21.1453C79.6358 19.7823 76.001 15.856 75.0923 16.3647" stroke="black" stroke-width="0.681528"/>
<g filter="url(#filter0_d_2205_170132)">
<path d="M10.2014 25.3043C17.1026 28.2535 32.8162 33.4442 43.9997 33.4442C46.7806 33.4442 49.7856 33.3812 52.8475 33.2482C65.1776 32.7126 78.4308 31.042 81.6911 27.7817C80.9833 32.5948 68.6554 42.292 62.58 46.5389L52.8475 33.2482L38.868 47.6006C29.1001 45.4771 14.9792 31.8516 9.13965 25.3043L9.49356 24.7734L10.2014 25.3043Z" fill="white"/>
<path d="M81.6911 27.7817L82.045 27.4278M81.6911 27.7817C78.4308 31.042 65.1776 32.7126 52.8475 33.2482M81.6911 27.7817C80.9833 32.5948 68.6554 42.292 62.58 46.5389L52.8475 33.2482M52.8475 33.2482C49.7856 33.3812 46.7806 33.4442 43.9997 33.4442C32.8162 33.4442 17.1026 28.2535 10.2014 25.3043L9.49356 24.7734L9.13965 25.3043C14.9792 31.8516 29.1001 45.4771 38.868 47.6006L52.8475 33.2482Z" stroke="black" stroke-width="0.683045"/>
</g>
<g filter="url(#filter1_d_2205_170132)">
<path d="M49.043 37.6899L52.936 33.7969L55.7673 37.5129L53.2899 41.052L59.1294 79.2742L52.936 85.4677L46.3887 78.9203L51.6973 41.052L49.043 37.6899Z" fill="black"/>
<path d="M53.2899 41.052L55.7673 37.5129L52.936 33.7969L49.043 37.6899L51.6973 41.052M53.2899 41.052H51.6973M53.2899 41.052L59.1294 79.2742L52.936 85.4677L46.3887 78.9203L51.6973 41.052" stroke="black" stroke-width="0.683045"/>
</g>
<g filter="url(#filter2_d_2205_170132)">
<path d="M25.3076 82.8651C27.7361 73.6572 32.6391 55.0427 32.8272 53.3076C33.0622 51.1388 35.4123 35.6282 43.6376 35.3932C48.1932 35.263 56.5412 34.9751 63.3784 34.7323C66.4171 34.6244 69.1573 34.5254 71.1337 34.4531C71.9171 34.6098 73.6719 36.0512 74.4239 40.5634C75.3639 46.2036 75.5989 51.4813 75.8339 53.3076C76.069 55.134 77.479 60.3042 78.184 61.2442C78.8891 62.1843 80.0641 70.7667 79.8291 72.5857C79.5941 74.4048 80.5341 80.1711 81.0041 80.6956C81.3802 81.1152 81.1778 82.2384 81.0211 82.8651H75.8509C76.0859 79.6739 76.398 73.0265 75.8339 71.0274C75.1289 68.5285 72.3088 62.8893 72.3088 60.3042C72.3088 57.7191 70.8987 53.3076 70.4287 53.3076C70.1596 53.3076 68.9916 50.9619 67.9759 48.7887C62.6049 49.3371 50.7349 50.5278 46.2227 50.9038C41.7105 51.2798 41.2092 53.7239 41.5225 54.899C40.9742 58.0034 39.1724 64.8936 36.3523 67.6198C33.5322 70.3459 32.8279 78.8409 32.8279 82.8651H25.3076Z" fill="#589437"/>
<path d="M63.3784 34.7323C56.5412 34.9751 48.1932 35.263 43.6376 35.3932C35.4123 35.6282 33.0622 51.1388 32.8272 53.3076C32.6391 55.0427 27.7361 73.6572 25.3076 82.8651H32.8279C32.8279 78.8409 33.5322 70.3459 36.3523 67.6198C39.1724 64.8936 40.9742 58.0034 41.5225 54.899C41.2092 53.7239 41.7105 51.2798 46.2227 50.9038C50.7349 50.5278 62.6049 49.3371 67.9759 48.7887M63.3784 34.7323C66.4171 34.6244 69.1573 34.5254 71.1337 34.4531C71.9171 34.6098 73.6719 36.0512 74.4239 40.5634C75.3639 46.2036 75.5989 51.4813 75.8339 53.3076C76.069 55.134 77.479 60.3042 78.184 61.2442C78.8891 62.1843 80.0641 70.7667 79.8291 72.5857C79.5941 74.4048 80.5341 80.1711 81.0041 80.6956C81.3802 81.1152 81.1778 82.2384 81.0211 82.8651H75.8509C76.0859 79.6739 76.398 73.0265 75.8339 71.0274C75.1289 68.5285 72.3088 62.8893 72.3088 60.3042C72.3088 57.7191 70.8987 53.3076 70.4287 53.3076C70.1596 53.3076 68.9916 50.9619 67.9759 48.7887M63.3784 34.7323C64.0835 35.0116 63.1434 36.5682 62.6734 37.0382C62.2034 37.5083 54.213 37.7433 50.4529 37.9783C46.6927 38.2133 45.2827 39.1533 45.0477 39.8583C44.8597 40.4224 58.2865 40.5634 65.0235 40.5634C60.4016 41.3467 50.5469 43.0545 48.1028 43.6185C45.6587 44.1825 46.4577 45.7336 47.1627 46.4386H66.9036C67.1931 47.0895 67.5725 47.9255 67.9759 48.7887" stroke="black" stroke-width="0.681528"/>
</g>
<defs>
<filter id="filter0_d_2205_170132" x="7.29335" y="24.2852" width="76.4084" height="26.5188" filterUnits="userSpaceOnUse" color-interpolation-filters="sRGB">
<feFlood flood-opacity="0" result="BackgroundImageFix"/>
<feColorMatrix in="SourceAlpha" type="matrix" values="0 0 0 0 0 0 0 0 0 0 0 0 0 0 0 0 0 0 127 0" result="hardAlpha"/>
<feOffset dy="1.41564"/>
<feGaussianBlur stdDeviation="0.707819"/>
<feComposite in2="hardAlpha" operator="out"/>
<feColorMatrix type="matrix" values="0 0 0 0 0 0 0 0 0 0 0 0 0 0 0 0 0 0 0.25 0"/>
<feBlend mode="normal" in2="BackgroundImageFix" result="effect1_dropShadow_2205_170132"/>
<feBlend mode="normal" in="SourceGraphic" in2="effect1_dropShadow_2205_170132" result="shape"/>
</filter>
<filter id="filter1_d_2205_170132" x="44.6107" y="33.2773" width="16.2981" height="55.5032" filterUnits="userSpaceOnUse" color-interpolation-filters="sRGB">
<feFlood flood-opacity="0" result="BackgroundImageFix"/>
<feColorMatrix in="SourceAlpha" type="matrix" values="0 0 0 0 0 0 0 0 0 0 0 0 0 0 0 0 0 0 127 0" result="hardAlpha"/>
<feOffset dy="1.41564"/>
<feGaussianBlur stdDeviation="0.707819"/>
<feComposite in2="hardAlpha" operator="out"/>
<feColorMatrix type="matrix" values="0 0 0 0 0 0 0 0 0 0 0 0 0 0 0 0 0 0 0.25 0"/>
<feBlend mode="normal" in2="BackgroundImageFix" result="effect1_dropShadow_2205_170132"/>
<feBlend mode="normal" in="SourceGraphic" in2="effect1_dropShadow_2205_170132" result="shape"/>
</filter>
<filter id="filter2_d_2205_170132" x="23.4496" y="34.1094" width="59.5246" height="51.9289" filterUnits="userSpaceOnUse" color-interpolation-filters="sRGB">
<feFlood flood-opacity="0" result="BackgroundImageFix"/>
<feColorMatrix in="SourceAlpha" type="matrix" values="0 0 0 0 0 0 0 0 0 0 0 0 0 0 0 0 0 0 127 0" result="hardAlpha"/>
<feOffset dy="1.41564"/>
<feGaussianBlur stdDeviation="0.707819"/>
<feComposite in2="hardAlpha" operator="out"/>
<feColorMatrix type="matrix" values="0 0 0 0 0 0 0 0 0 0 0 0 0 0 0 0 0 0 0.25 0"/>
<feBlend mode="normal" in2="BackgroundImageFix" result="effect1_dropShadow_2205_170132"/>
<feBlend mode="normal" in="SourceGraphic" in2="effect1_dropShadow_2205_170132" result="shape"/>
</filter>
</defs>
</svg>
