<svg width="19" height="18" viewBox="0 0 19 18" fill="none" xmlns="http://www.w3.org/2000/svg">
<g clip-path="url(#clip0_1205_11824)">
<path d="M16.8424 2.25161L1.43468 7.81743C1.43468 7.81743 0.738281 8.05943 0.738281 8.46275C0.825331 8.86607 1.43468 9.10806 1.43468 9.10806L5.3519 10.318L14.6662 4.83286C14.6662 4.83286 15.1885 4.5102 15.1885 4.83286C15.1885 4.83286 15.2755 4.91352 15.0144 5.15552C14.7533 5.39751 7.70224 11.286 7.70224 11.286L7.17994 15.3192C7.35404 15.3999 7.61519 15.2385 7.61519 15.2385L10.1396 13.1413L14.0569 15.9645C15.1014 16.3678 15.5367 15.4805 15.5367 15.4805L18.3223 2.65493C18.1482 1.68696 16.8424 2.25161 16.8424 2.25161Z" fill="white"/>
</g>
<defs>
<clipPath id="clip0_1205_11824">
<rect width="18.4481" height="17.4772" fill="white" transform="translate(0.00390625 0.0878906)"/>
</clipPath>
</defs>
</svg>
