<svg width="13" height="13" viewBox="0 0 13 13" fill="none" xmlns="http://www.w3.org/2000/svg">
<g clip-path="url(#clip0_194_237483)">
<path d="M8.04993 11V10C8.04993 9.46957 7.83921 8.96086 7.46414 8.58579C7.08907 8.21071 6.58036 8 6.04993 8H3.04993C2.51949 8 2.01079 8.21071 1.63571 8.58579C1.26064 8.96086 1.04993 9.46957 1.04993 10V11" stroke="white" stroke-linecap="round" stroke-linejoin="round"/>
<path d="M4.54993 6C5.6545 6 6.54993 5.10457 6.54993 4C6.54993 2.89543 5.6545 2 4.54993 2C3.44536 2 2.54993 2.89543 2.54993 4C2.54993 5.10457 3.44536 6 4.54993 6Z" stroke="white" stroke-linecap="round" stroke-linejoin="round"/>
<path d="M11.0499 10.9995V9.99945C11.0496 9.55632 10.9021 9.12584 10.6306 8.77561C10.3591 8.42538 9.97899 8.17524 9.54993 8.06445" stroke="white" stroke-linecap="round" stroke-linejoin="round"/>
<path d="M8.04993 2.06445C8.48013 2.1746 8.86145 2.4248 9.13375 2.77561C9.40605 3.12641 9.55385 3.55787 9.55385 4.00195C9.55385 4.44604 9.40605 4.87749 9.13375 5.2283C8.86145 5.5791 8.48013 5.8293 8.04993 5.93945" stroke="white" stroke-linecap="round" stroke-linejoin="round"/>
</g>
<defs>
<clipPath id="clip0_194_237483">
<rect width="12" height="12" fill="white" transform="translate(0.0499268 0.5)"/>
</clipPath>
</defs>
</svg>
