<svg width="28" height="28" viewBox="0 0 28 28" fill="none" xmlns="http://www.w3.org/2000/svg">
<g clip-path="url(#clip0_194_249682)">
<path fill-rule="evenodd" clip-rule="evenodd" d="M14 28C21.732 28 28 21.732 28 14C28 6.26801 21.732 0 14 0C6.26801 0 0 6.26801 0 14C0 21.732 6.26801 28 14 28ZM10.4185 9.48837C9.90476 9.48837 9.48828 9.90485 9.48828 10.4186V17.5814C9.48828 18.0951 9.90476 18.5116 10.4185 18.5116H17.5813C18.0951 18.5116 18.5115 18.0951 18.5115 17.5814V10.4186C18.5115 9.90485 18.0951 9.48837 17.5813 9.48837H10.4185Z" fill="#0052FF"/>
</g>
<defs>
<clipPath id="clip0_194_249682">
<rect width="28" height="28" fill="white"/>
</clipPath>
</defs>
</svg>
